<svg xmlns="http://www.w3.org/2000/svg" viewBox="0 0 680 2308.5"><defs><style>.cls-1{fill:none;stroke:#fff;}.cls-1,.cls-3{stroke-miterlimit:10;stroke-width:8px;}.cls-2{fill:#fff;}.cls-3{stroke:#000;}</style></defs><title>countdown-1</title><g id="Layer_2" data-name="Layer 2"><g id="Layer_1-2" data-name="Layer 1"><path class="cls-1" d="M192,1861v293.5a20.06,20.06,0,0,1-20,20H101.5a20.06,20.06,0,0,0-20,20v90a20.06,20.06,0,0,0,20,20h379a20.06,20.06,0,0,0,20-20V2215"/><path class="cls-1" d="M546,346v81a20.06,20.06,0,0,1-20,20H212a20.06,20.06,0,0,0-20,20V722a20.06,20.06,0,0,0,20,20H349a20.06,20.06,0,0,1,20,20v257a20.06,20.06,0,0,0,20,20H558a20.06,20.06,0,0,1,20,20v8a20.06,20.06,0,0,1-20,20H212a20.06,20.06,0,0,0-20,20v388"/><rect class="cls-2" x="4" y="520" width="632" height="175" rx="15" ry="15"/><rect class="cls-1" x="4" y="520" width="632" height="175" rx="15" ry="15"/><rect class="cls-2" x="4" y="4" width="606" height="394" rx="15" ry="15"/><rect class="cls-1" x="4" y="4" width="606" height="394" rx="15" ry="15"/><rect class="cls-2" x="4" y="819" width="632" height="174" rx="15" ry="15"/><rect class="cls-1" x="4" y="819" width="632" height="174" rx="15" ry="15"/><rect class="cls-2" x="9" y="1131" width="632" height="161" rx="15" ry="15"/><rect class="cls-1" x="9" y="1131" width="632" height="161" rx="15" ry="15"/><rect class="cls-2" x="9" y="1439" width="632" height="457" rx="15" ry="15"/><rect class="cls-1" x="9" y="1439" width="632" height="457" rx="15" ry="15"/><rect class="cls-3" x="9" y="1970" width="350" height="109" rx="54.5" ry="54.5"/><rect class="cls-3" x="326" y="2131" width="350" height="109" rx="54.5" ry="54.5"/></g></g></svg>