<svg xmlns="http://www.w3.org/2000/svg" viewBox="0 0 876 2488"><defs><style>.cls-1{fill:none;}.cls-1,.cls-2,.cls-3{stroke:#000;}.cls-1,.cls-2,.cls-3,.cls-4{stroke-miterlimit:10;}.cls-1,.cls-3,.cls-4{stroke-width:8px;}.cls-2{stroke-width:10px;}.cls-3{fill:#fff;}.cls-4{fill:#ff424c;stroke:#ff424c;}</style></defs><title>landing-1</title><g id="Layer_2" data-name="Layer 2"><g id="Layer_1-2" data-name="Layer 1"><path class="cls-1" d="M656,572V689a30.46,30.46,0,0,1-30,30.3l-242,2.4A30.46,30.46,0,0,0,354,752v279"/><path class="cls-1" d="M483,1843v27.5c0,15.12,13.5,27.5,30,27.5h67a30.09,30.09,0,0,1,30,30v172a30.09,30.09,0,0,1-30,30H278a30.09,30.09,0,0,0-30,30v156"/><rect class="cls-2" x="5" y="5" width="866" height="567" rx="24.36" ry="24.36"/><rect class="cls-3" x="248" y="757" width="350" height="109" rx="54.5" ry="54.5"/><rect class="cls-3" x="179" y="973" width="350" height="111" rx="55.5" ry="55.5"/><path class="cls-1" d="M529,1028h47a15,15,0,0,1,15,15v130a15,15,0,0,1-15,15H498a15,15,0,0,0-15,15v157"/><rect class="cls-1" x="179.11" y="1358" width="528.89" height="485" rx="15" ry="15"/><rect class="cls-4" x="390" y="1974" width="350" height="109" rx="54.5" ry="54.5"/><rect class="cls-3" x="144" y="2222" width="350" height="109" rx="54.5" ry="54.5"/><rect class="cls-3" x="411" y="2375" width="350" height="109" rx="54.5" ry="54.5"/><path class="cls-1" d="M248,2331v19a15,15,0,0,1-15,15H159a15,15,0,0,0-15,15v44a15,15,0,0,0,15,15H411"/></g></g></svg>