<svg xmlns="http://www.w3.org/2000/svg" viewBox="0 0 605 1872"><defs><style>.cls-1{fill:none;stroke:#ff424c;}.cls-1,.cls-2{stroke-miterlimit:10;stroke-width:8px;}.cls-2{stroke:#000;}</style></defs><title>winner</title><g id="Layer_2" data-name="Layer 2"><g id="Layer_1-2" data-name="Layer 1"><path class="cls-1" d="M370,914v356a20.06,20.06,0,0,1-20,20H24a20.06,20.06,0,0,0-20,20v487a20.06,20.06,0,0,0,20,20H93"/><path class="cls-1" d="M116,0V96a20.06,20.06,0,0,0,20,20H581a20.06,20.06,0,0,1,20,20V308a20.06,20.06,0,0,1-20,20H474a20.06,20.06,0,0,1-20-20V236a20.06,20.06,0,0,0-20-20H312a20.06,20.06,0,0,0-20,20V484a20.06,20.06,0,0,1-20,20H88a20.06,20.06,0,0,0-20,20V800a20.06,20.06,0,0,0,20,20H350a20.06,20.06,0,0,1,20,20v74"/><rect class="cls-2" x="64" y="1759" width="350" height="109" rx="54.5" ry="54.5"/></g></g></svg>