<svg xmlns="http://www.w3.org/2000/svg" viewBox="0 0 626 2331"><defs><style>.cls-1{fill:none;}.cls-1,.cls-2,.cls-3{stroke:#000;}.cls-1,.cls-2,.cls-3,.cls-4{stroke-miterlimit:10;}.cls-1,.cls-3,.cls-4{stroke-width:8px;}.cls-2{stroke-width:10px;}.cls-3{fill:#fff;}.cls-4{fill:#ff424c;stroke:#ff424c;}</style></defs><title>landing-1_1</title><g id="Layer_2" data-name="Layer 2"><g id="Layer_1-2" data-name="Layer 1"><path class="cls-1" d="M517,415V532a30.46,30.46,0,0,1-30,30.3l-242,2.4A30.46,30.46,0,0,0,215,595V874"/><path class="cls-1" d="M344,1686v27.5c0,15.12,13.5,27.5,30,27.5h67a30.09,30.09,0,0,1,30,30v172a30.09,30.09,0,0,1-30,30H139a30.09,30.09,0,0,0-30,30v156"/><rect class="cls-2" x="5" y="5" width="596" height="410" rx="24.36" ry="24.36"/><rect class="cls-3" x="109" y="600" width="350" height="109" rx="54.5" ry="54.5"/><rect class="cls-3" x="40" y="816" width="350" height="111" rx="55.5" ry="55.5"/><path class="cls-1" d="M390,871h47a15,15,0,0,1,15,15v130a15,15,0,0,1-15,15H359a15,15,0,0,0-15,15v157"/><rect class="cls-1" x="40.11" y="1201" width="528.89" height="485" rx="15" ry="15"/><rect class="cls-4" x="251" y="1817" width="350" height="109" rx="54.5" ry="54.5"/><rect class="cls-3" x="5" y="2065" width="350" height="109" rx="54.5" ry="54.5"/><rect class="cls-3" x="272" y="2218" width="350" height="109" rx="54.5" ry="54.5"/><path class="cls-1" d="M109,2174v19a15,15,0,0,1-15,15H20a15,15,0,0,0-15,15v44a15,15,0,0,0,15,15H272"/></g></g></svg>