<svg xmlns="http://www.w3.org/2000/svg" viewBox="0 0 616 2039"><defs><style>.cls-1{fill:none;}.cls-1,.cls-2{stroke:#00c698;}.cls-1,.cls-2,.cls-4{stroke-miterlimit:10;stroke-width:8px;}.cls-2,.cls-3{fill:#fff;}.cls-4{fill:#ff424c;stroke:#ff424c;}</style></defs><title>landing-3</title><g id="Layer_2" data-name="Layer 2"><g id="Layer_1-2" data-name="Layer 1"><path class="cls-1" d="M340,0V268a20.06,20.06,0,0,1-20,20H152a20.06,20.06,0,0,0-20,20V682a20.06,20.06,0,0,1-20,20H24A20.06,20.06,0,0,0,4,722v34a20.06,20.06,0,0,0,20,20H444a20.06,20.06,0,0,1,20,20v754a20.06,20.06,0,0,1-20,20H313a20.06,20.06,0,0,0-20,20v264a20.06,20.06,0,0,1-20,20H58a20.06,20.06,0,0,0-20,20v82a20.06,20.06,0,0,0,20,20h98"/><rect class="cls-2" x="40" y="147" width="350" height="109" rx="54.5" ry="54.5"/><rect class="cls-3" x="40" y="331" width="374" height="317" rx="20" ry="20"/><rect class="cls-1" x="40" y="331" width="374" height="317" rx="20" ry="20"/><rect class="cls-2" x="156" y="838" width="456" height="109" rx="54.5" ry="54.5"/><rect class="cls-3" x="156" y="1002" width="443" height="530" rx="20" ry="20"/><rect class="cls-1" x="156" y="1002" width="443" height="530" rx="20" ry="20"/><rect class="cls-4" x="120" y="1736" width="350" height="109" rx="54.5" ry="54.5"/><rect class="cls-4" x="120" y="1926" width="350" height="109" rx="54.5" ry="54.5"/></g></g></svg>