<svg xmlns="http://www.w3.org/2000/svg" viewBox="0 0 648 1439"><defs><style>.cls-1{fill:none;stroke:#fff;stroke-miterlimit:10;stroke-width:8px;}.cls-2{fill:#fff;}</style></defs><title>thank</title><g id="Layer_2" data-name="Layer 2"><g id="Layer_1-2" data-name="Layer 1"><path class="cls-1" d="M572,1149h36c19.8,0,36-20.25,36-45V828a45.13,45.13,0,0,0-45-45H518a45.13,45.13,0,0,1-45-45V671a45.13,45.13,0,0,0-45-45H248a45.13,45.13,0,0,1-45-45V398a45.13,45.13,0,0,1,45-45H569a45.13,45.13,0,0,0,45-45V131a45.13,45.13,0,0,0-45-45H90C65.25,86,45,66.65,45,43V0"/><rect class="cls-2" x="4" y="933" width="582" height="502" rx="15" ry="15"/><rect class="cls-1" x="4" y="933" width="582" height="502" rx="15" ry="15"/></g></g></svg>