<svg xmlns="http://www.w3.org/2000/svg" xmlns:xlink="http://www.w3.org/1999/xlink" viewBox="0 0 750 3164"><defs><style>.cls-1{fill:none;stroke:#ff424c;}.cls-1,.cls-4{stroke-miterlimit:10;stroke-width:8px;}.cls-2{fill:url(#New_Gradient_Swatch_4);}.cls-3{fill:#ff424c;}.cls-4{stroke:#000;}</style><linearGradient id="New_Gradient_Swatch_4" x1="375" x2="375" y2="485" gradientUnits="userSpaceOnUse"><stop offset="0" stop-color="#e900b0"/><stop offset="0.32" stop-color="#ef1394"/><stop offset="1" stop-color="#ff424c"/></linearGradient></defs><title>winner_2</title><g id="Layer_2" data-name="Layer 2"><g id="Layer_1-2" data-name="Layer 1"><path class="cls-1" d="M414,2206v356a20.06,20.06,0,0,1-20,20H68a20.06,20.06,0,0,0-20,20v487a20.06,20.06,0,0,0,20,20h69"/><rect class="cls-2" width="750" height="485" rx="15" ry="15"/><path class="cls-1" d="M160,466v96a20.06,20.06,0,0,0,20,20H625a20.06,20.06,0,0,1,20,20V774a20.06,20.06,0,0,1-20,20H518a20.06,20.06,0,0,1-20-20V702a20.06,20.06,0,0,0-20-20H356a20.06,20.06,0,0,0-20,20V950a20.06,20.06,0,0,1-20,20H132a20.06,20.06,0,0,0-20,20v276a20.06,20.06,0,0,0,20,20H394a20.06,20.06,0,0,1,20,20v54a20.06,20.06,0,0,0,20,20H580a20.06,20.06,0,0,1,20,20v260a20.06,20.06,0,0,1-20,20H208a20.06,20.06,0,0,0-20,20v325a20.06,20.06,0,0,0,20,20H381a20.06,20.06,0,0,1,20,20v141"/><rect class="cls-3" y="2206" width="750" height="336"/><rect class="cls-4" x="108" y="3051" width="350" height="109" rx="54.5" ry="54.5"/></g></g></svg>