<svg xmlns="http://www.w3.org/2000/svg" viewBox="0 0 703.96 2211"><defs><style>.cls-1{fill:none;stroke:#000;stroke-miterlimit:10;stroke-width:8px;}</style></defs><title>wireframesignup-line_1</title><g id="Layer_2" data-name="Layer 2"><g id="Layer_1-2" data-name="Layer 1"><path class="cls-1" d="M0,1248H26c14.3,0,26-20.25,26-45L51,49A45.09,45.09,0,0,1,96,4H654a45.18,45.18,0,0,1,45,45L700,1205a45.09,45.09,0,0,1-45,45H189a45.13,45.13,0,0,0-45,45v44a45.13,45.13,0,0,0,45,45h69a45.13,45.13,0,0,1,45,45v782"/></g></g></svg>